<?xml version="1.0" encoding="UTF-8"?>
<svg xmlns="http://www.w3.org/2000/svg" version="1.1" viewBox="0 0 171.5 57.1">
  <defs>
    <style>
      .cls-1 {
        fill: #de9e51;
      }

      .cls-2 {
        fill: #fdf2fc;
      }

      .cls-3 {
        fill: #de9a4a;
      }

      .cls-4 {
        fill: #d9e7db;
      }

      .cls-5 {
        fill: #d7a154;
      }

      .cls-6 {
        fill: #222122;
      }

      .cls-7 {
        fill: #eace4b;
      }

      .cls-8 {
        fill: #528969;
      }

      .cls-9 {
        fill: #232122;
      }

      .cls-10 {
        fill: #4a2659;
      }

      .cls-11 {
        fill: #edd25f;
      }

      .cls-12 {
        fill: #e09c4b;
      }

      .cls-13 {
        fill: #eea2ee;
      }

      .cls-14 {
        fill: #e19b42;
      }

      .cls-15 {
        fill: #d5ad72;
      }

      .cls-16 {
        fill: #222021;
      }

      .cls-17 {
        fill: #fcdfa2;
      }

      .cls-18 {
        fill: #e09e4f;
      }

      .cls-19 {
        fill: #dea558;
      }

      .cls-20 {
        fill: #242323;
      }

      .cls-21 {
        fill: #d5a150;
      }

      .cls-22 {
        fill: #e99733;
      }

      .cls-23 {
        fill: #b599c0;
      }

      .cls-24 {
        fill: #262626;
      }

      .cls-25 {
        fill: #242122;
      }

      .cls-26 {
        fill: #e49935;
      }

      .cls-27 {
        fill: #189449;
      }

      .cls-28 {
        fill: #c6f2dc;
      }

      .cls-29 {
        fill: #221f20;
      }

      .cls-30 {
        fill: #242223;
      }

      .cls-31 {
        fill: #daa35c;
      }

      .cls-32 {
        fill: #f0952b;
      }

      .cls-33 {
        fill: #e3ac69;
      }

      .cls-34 {
        fill: #231f20;
      }

      .cls-35 {
        fill: #fbfbe6;
      }

      .cls-36 {
        fill: #dcb47d;
      }

      .cls-37 {
        fill: #eefcf3;
      }

      .cls-38 {
        fill: #4a9267;
      }

      .cls-39 {
        fill: #e99a40;
      }

      .cls-40 {
        fill: #f79325;
      }

      .cls-41 {
        fill: #922a8e;
      }

      .cls-42 {
        fill: #a4ecc0;
      }

      .cls-43 {
        fill: #272425;
      }

      .cls-44 {
        fill: #e9a3ec;
      }

      .cls-45 {
        fill: #232021;
      }

      .cls-46 {
        fill: #faebc8;
      }

      .cls-47 {
        fill: #aeacad;
      }

      .cls-48 {
        fill: #d99d4f;
      }

      .cls-49 {
        fill: #242021;
      }

      .cls-50 {
        fill: #df9d46;
      }

      .cls-51 {
        fill: #949293;
      }

      .cls-52 {
        fill: #232223;
      }

      .cls-53 {
        fill: #fefefe;
      }

      .cls-54 {
        fill: #f9c91e;
      }

      .cls-55 {
        fill: #fcf8de;
      }

      .cls-56 {
        fill: #4a2559;
      }

      .cls-57 {
        fill: #d8a96a;
      }

      .cls-58 {
        fill: #fdfae8;
      }

      .cls-59 {
        fill: #232222;
      }

      .cls-60 {
        fill: #e9d255;
      }

      .cls-61 {
        fill: #8bc499;
      }
    </style>
  </defs>
  <!-- Generator: Adobe Illustrator 28.6.0, SVG Export Plug-In . SVG Version: 1.2.0 Build 709)  -->
  <g>
    <g id="Layer_1">
      <g>
        <path class="cls-56" d="M45.6,16.4c.2,0,.4-.2.5.1,0,.2,0,.4-.3.5-.2.1-.4.3-.6.4.3.2.8-.2.9.2,0,.4-.6.4-.9.6.1.2.5,0,.5.3,0,.2-.2.2-.3.2-2.8.8-5.1,2.5-7.6,3.8-1.8,1-3.7,2-5.5,3-2.4,1.5-5.2-.2-5.4-2.7-.3-3.8-.7-7.6-1-11.5,0-1.1-.3-2.2-.6-3.2,0-.2-.2-.4,0-.6.3-.2.3.2.6.3,0-.4-.4-.8,0-1,.4-.2.3.5.6.7,0-.3,0-.6,0-.9,0-.2,0-.4.3-.4.2,0,.3.2.3.4,0,.3,0,.5.1.9,0-.4.1-.6.2-.8,0-.2.1-.3.3-.3.2,0,.2.2.2.3,0,.4,0,.8,0,1.2.2,0,.4-.2.6,0,.2.2,0,.4-.1.6-.4.6-.3,1.2,0,1.9.7,1.7,1.2,3.5,2,5.3,1,2.4,2.9,3.4,5.4,2.8,2-.4,4.1-.9,6.1-1.3.6-.1.9-.6,1.2-1,.1-.2.2-.4.4-.4.3,0,.1.3.2.6.3-.2.6-.5.9-.7.2-.1.3-.2.5,0,.2.1,0,.3,0,.4,0,0-.1,0-.1.1h0c0,0-.1,0-.1.1h0c0,.1-.2.3-.3.3,0,0,0,0,0,0,.2-.1.4,0,.5-.2h0c0,0,.1,0,.2-.1Z"/>
        <path class="cls-41" d="M20.9,9c0-.2-.2-.5.1-.7.2-.1.4.1.4.3,0,.2.2.5.2.7,0,0,0,0,.1,0,0-.3-.2-.7.3-.7.4,0,.2.5.3.8.2,0,.2-.4.4-.3.2,0,.1.3.1.5.2,3.6,1.4,7,2.1,10.5.2,1,.5,2,.7,3.1.6,2.5-1.4,4.5-3.9,4-3.8-.8-7.7-1.5-11.6-2.2-.7-.1-1.4,0-2.1-.2-.2,0-.5.1-.5-.2,0-.2.3-.2.4-.3-.3-.2-.9,0-.9-.4,0-.3.5-.2.8-.3-.2-.2-.4-.2-.6-.3-.2,0-.5-.1-.4-.4,0-.3.4-.2.6-.2.2,0,.4,0,.5,0,0,0-.3,0-.4-.2-.2-.1-.5-.2-.3-.5.1-.3.4-.1.7,0,.3,0,.5.2.8.3v-.6c.4-.2.7,0,.9.3.5.4,1.1.5,1.7.3.8-.2,1.7-.2,2.6-.2.9,0,1.7,0,2.6-.2,2.2-.4,3.4-1.9,3.5-4.3,0-1.3,0-2.6.4-3.9,0-.4,0-.8.2-1.2,0-.6,0-1.2-.6-1.7-.2-.2-.6-.6.1-.6.2,0,.1-.2,0-.3,0-.2-.2-.4-.3-.6,0-.2-.2-.4,0-.6.3-.2.4,0,.5.2,0,0,0,.1.2.1,0,0,0,0,0-.1Z"/>
        <path class="cls-56" d="M39.5,13.5c0,2.4-1.9,4.3-4.3,4.3-2.4,0-4.3-2-4.2-4.4,0-2.4,1.9-4.2,4.4-4.2,2.4,0,4.2,2,4.2,4.3Z"/>
        <path class="cls-27" d="M11.8,40c-.1-.1-.3-.1-.5-.1-.7,0-1.2-.5-1.6-.9-1.9-2-1.5-5.6,1.3-6.8,2-.9,4.6-.4,5.7,2,.9,2,.1,4.6-1.9,5.6-.9.5-1.9.7-3,.3Z"/>
        <path class="cls-41" d="M19.5,16.6s0,0,0,0c.4.8.2,1.6-.1,2.4-1.1,2.7-4.7,3.4-6.8,1.4-1.3-1.3-1.6-3.5-.7-5,.9-1.6,2.2-2.3,4-2.2,1.4.1,2.6.8,3.3,2.1.2.4.3.8.3,1.2Z"/>
        <path class="cls-35" d="M29.4,32.1c.5,0,.9,0,1.2.5.1.2.4.3.6,0,.2-.2.5-.5.2-.7-.9-.5-.6-1.4-.6-2,0-1.4.6-2.6,1.9-3.4.5-.4,1.2-.3,1.8-.5,1.2-.5,2.5-1,3.7-1.5,1.1-.5,2.2-.6,3.2-1.2,1-.6,2.3-.6,3-1.6.1-.1.3-.2.4-.2.4,0,.7-.1,1.1-.4,1-.6,2.8,0,3.3,1,.1.3-.2.6,0,.9.3.4-.2.4-.4.5,0,0-.2.1-.2.2-.4.7-.8,1-1.6.8-.4-.1-.8-.1-1,.3,0,.2-.2.3-.4.3-.3,0-.5.1-.7.4-.5.6-1.2.9-1.6,1.4,0,0-.3,0-.2.3,0,.1.2.2.4.1.6-.1,1.1-.2,1.7-.3.2,0,.4,0,.6.1.3.3.7.3,1.1.4.5.1.9.6,1.3,1.1.6.8,1,1.7,1.1,2.6,0,.6-.3,1.2-.4,1.8,0,.5-.2,1-.7,1.4-.5.3-.1.7.1,1-1-.8-1.5.2-2.1.5,0,0-.2.1-.3.1-1.5.1-2.9,0-4.1-.9-.1,0-.2-.2-.3-.1-.2.1,0,.3,0,.4.6.9,1.2,1.8,1.6,2.8.2.6.6,1,1.2,1.2,1,.3,1.2,1.2,1.6,2,0,0,0,.2,0,.3-.5.3-.7,1-1.2,1.3-.4.3-.9.4-1.3.2-.3,0-.6-.3-1-.3,0,0-.2-.1-.2-.2-.5-1.5-1.9-2.3-2.8-3.4-.5-.5-1-1-1.5-1.5-.6-.6-1.1-1.1-1.7-1.6-.5-.5-.9-.9-1.3-1.4-.2-.3-.4-.7-1-.7-.3,0-.6-.6-.8-1-.2-.4-.7-.6-1.1-.4-.2.1-.3.3,0,.5.5.4.7,1.2,1.5,1.3.2,0,.2.1.2.3,0,.6.4.9.7,1.1.4.3.6.7.9,1.1.9,1.2,1.8,2.4,2.9,3.5.6.6,1.2,1.3,1.6,2.1.2.3.4.5.8.7.8.3,1,1.6.5,2.3,0,0,0,0,0-.1,0,0,0-.1,0-.2,0,0,0,0,0-.1,0,0,0,0,0,0,0,0,0,0,0-.1,0,0,0,0,0,0,0,0,0-.1,0-.2,0,0,0,0,0-.1,0,0,0-.1,0-.2-1.7-1.4-3-3.1-4.3-4.8-.5-.6-1-1.1-1.5-1.7-1.2-1.6-2.5-3.1-3.7-4.6-.2-.3-.6-.5-.9-.7-.2-.1-.4-.2-.4-.4Z"/>
        <path class="cls-37" d="M11.8,40c1.5.2,2.9,0,4-1.3,1.4-1.5,1.4-4,0-5.6-1.4-1.6-4-1.8-5.6-.4-2.4,2-2,5.6.8,6.9.1,0,.2.1.3.2-.5.2-.9,0-1.4-.3-1.1-.7-1.7-2.1-1.5-3.3,0-.2,0-.4,0-.6,0-.4-.4-.9,0-1.3.8-.9,1.4-2,2.6-2.5.6-.3,1.1-.3,1.7-.2.2,0,.5,0,.6-.2,0-.3-.3-.3-.4-.3-.7-.2-1.4-.6-2.1-.9-.6-.3-1.3-.5-1.9-.7-.5-.2-.7.4-1.2.5.3.3.7.3.8.7-.5.3-1,0-1.4-.3.2-.8,0-1.3-.8-1.4-.3,0-.8-.2-.8-.5-.1-.5-.1-1.1.2-1.6.2-.3.5-.5.8-.9.2-.2.5-.4,1-.2.7.2,1.5.4,2.3.4.6,0,1.2.4,1.7.4.7,0,1.4.2,2.1.2,2,0,4.1.2,6.1.5,1.1.2,2.2.2,3.3.3,1.4.2,2.6,1.9,2.2,3.5-.1.4-.3.8-.2,1.3,0,.2,0,.5-.2.7-1.1,1.3-1.5,2.9-2.3,4.3-.7,1.1-1.5,2.3-2,3.6-.4.9-.8,1.8-1.6,2.5-.2.1-.2.3-.2.6.1.6-.2,1.1-.5,1.7-.2.4-.7.3-1,.6-.3.4-.7.3-1.1,0,0,0-.2,0-.3,0-1.1,0-1.6-.8-1.3-1.8,0-.2,0-.5,0-.7,0-.4,0-.8.7-.9.4,0,.7-.5.9-.9.3-.8.2-1.7.4-2.5,0-.1,0-.3-.2-.4-.2,0-.2,0-.3.2-.8.9-2,1-3,1.4-.4.2-.9-.2-1.2-.5Z"/>
        <path class="cls-29" d="M4.5,39.4c.5,1.2,1.2,2.4,1.9,3.5.2.3.2.5-.1.7-.4.3-.5,0-.7-.2-2-3.1-3.4-6.5-4-10.1-1-5.9,0-11.5,2.6-16.8.8-1.5,1.7-2.9,2.7-4.2.2-.3.3-.5.7-.2.4.3.3.5,0,.8-2.6,3.3-4.4,7.1-5.1,11.3-.9,5-.4,9.8,1.6,14.5,0,.1,0,.2.1.3,0,0,0,.1,0,.2h0c0,0,0,.2.1.3Z"/>
        <path class="cls-34" d="M54.6,28.7c0,5.3-1.4,10.2-4.3,14.6-.2.3-.3.6-.8.3-.4-.3-.3-.5,0-.8,6-9.3,5.5-21.2-1.3-29.9-.1-.2-.6-.4-.2-.7.3-.3.5-.5.9,0,3.7,4.9,5.7,10.3,5.7,16.5Z"/>
        <path class="cls-2" d="M19.5,16.6c-.5-1.6-1.4-2.8-3.1-3.1-1.5-.3-2.9,0-3.9,1.3-1.1,1.3-1.3,2.7-.7,4.2.6,1.5,1.8,2.3,3.4,2.4,2.5.1,4.3-1.6,4.3-4.1,0-.2,0-.4,0-.5.6.2.6,0,.5-.5-.2-.9,0-1.8.6-2.5-.2,1.7,0,3.5-.5,5.2-.5,1.9-1.7,3-3.7,3.2-1.9.2-3.8.3-5.7.4-.5,0-.8-.2-1.1-.4-.2-.2-.4-.5-.8-.4.3-.2.5-.2.8,0,.7.4,1.3.6,2.2.4.8-.2,1.6-.1,2.5-.2-.1-.4-.5-.4-.8-.5-1-.1-1.3-.9-1.6-1.6,0-.1,0-.3-.2-.4-.8-.4-.8-1-.6-1.8,0-.2,0-.5,0-.8,0-.5,0-1,.5-1.3.3-.2.4-.6.4-1,0-.4.2-.6.5-.6.5-.1.9-.3,1.3-.6.8-.6,1.7-.4,2.6-.5,0,0,.3,0,.3.1.3.6.9.7,1.4.8.9.3,1.6,1.8,1.3,2.7Z"/>
        <path class="cls-58" d="M36.4,44.4c-.7,0-1.2-.4-1.6-.9-.1-.2-.4-.3-.5-.4-.2-.1-.4-.3-.5-.2-.2.2,0,.4,0,.6.2.4,0,.8,0,1.2,0,1.1,0,2.2-.6,3.2-.2.4-.6.7-1,.8-1.3.7-2.7,1.3-4.2.7-1.3-.5-2.2-1.4-2.7-2.7-.3-.7-.2-1.4-.5-2.1-.1-.3.4-.9.7-1.3.1-.2.4-.3.4-.6,0-.1.2-.3,0-.4-.2-.1-.3,0-.4,0,0,0,0,0,0,0,0,0,0-.1,0-.2,0,0,0-.1,0-.2.4-.4.8-.8,1.2-1.1,0,0,.1,0,.2-.1.3-.1.5-.3.7-.4,1.5-.7,2.9-.5,4.3.4.7.4,1.3.9,2,1.4.6.5,1.2.8,1.7,1.4,0,0,0,0,.1.1,0,0,0,0,0,0,.1.3.6.3.6.7Z"/>
        <path class="cls-45" d="M47.4,47.9c-.5-.6-.9-1.1-1.3-1.5-.2-.3-.3-.4,0-.7.3-.2.4-.1.6.1.5.6,1,1.2,1.4,1.8.2.2.6.4.3.8-.3.4-.6.6-1.1.4-.7-.2-1.4-.4-2.1-.6-.1,0-.2,0-.4,0,.5.6.9,1.1,1.3,1.6.2.3.3.5,0,.7-.3.2-.4.1-.6-.1-.4-.6-.9-1.1-1.4-1.7-.2-.2-.6-.4-.3-.8.3-.4.7-.7,1.2-.5.7.2,1.5.4,2.4.7Z"/>
        <path class="cls-16" d="M34.9,4c.2-.8.3-1.3.4-1.9,0-.3,0-.6.5-.5.4,0,.5.3.4.6-.2.7-.3,1.5-.4,2.2,0,.2,0,.7-.4.7-.5,0-.9,0-1.1-.6-.3-.8-.7-1.6-1.1-2.5-.2.8-.3,1.5-.4,2.1,0,.3-.2.4-.5.4-.3,0-.4-.2-.3-.5.2-.8.3-1.5.4-2.3,0-.3,0-.7.4-.7.4,0,.9,0,1.2.5.3.7.6,1.5,1,2.4Z"/>
        <path class="cls-45" d="M23.2,54.5c0-.6.2-1.1.3-1.7,0-.3.1-.4.4-.3.3,0,.5.1.4.5-.2.8-.3,1.6-.5,2.4,0,.3,0,.7-.4.7-.4,0-.9,0-1.1-.6-.3-.8-.7-1.6-1.1-2.5-.2.8-.3,1.5-.4,2.1,0,.4-.2.4-.5.4-.4,0-.3-.3-.3-.6.1-.8.3-1.5.5-2.3,0-.2-.1-.7.4-.7.4,0,.9,0,1.1.5.3.7.6,1.4.9,2.1,0,.1.2.1.2,0Z"/>
        <path class="cls-10" d="M27.4,30.2c-.9,0-1.6-.6-1.6-1.6,0-.9.7-1.6,1.6-1.6.9,0,1.6.7,1.6,1.6,0,.9-.7,1.6-1.6,1.6Z"/>
        <path class="cls-49" d="M17.5,54.5c-.6,0-1.3-.3-1.8-.8-.4-.3-.5-.7-.3-1.2.2-.6.5-1.3.7-1.9.1-.4.3-.3.6-.2.3.1.4.2.3.6-.2.5-.4,1.1-.6,1.6-.2.6,0,1,.6,1.2.5.2.9,0,1.1-.5.2-.5.4-1,.6-1.5.1-.4.3-.4.7-.3.4.1.3.4.2.6-.2.5-.4,1.1-.6,1.7-.2.5-.6.8-1.4.8Z"/>
        <path class="cls-52" d="M41.7,3.7c.7.4,1.4.7,2.1,1.1.1,0,0,.2,0,.4,0,.1-.2.1-.4,0-.3-.1-.6-.3-.9-.4-.3-.1-.5-.3-.6.1-.2.4,0,.5.3.7.2,0,.3.2.5.3.2,0,.4.2.3.4-.2.3-.4.1-.6,0-.1,0-.2-.1-.4-.2-.3-.2-.5-.3-.8.2-.2.5,0,.6.3.7.3.1.5.3.8.4.1,0,.3.2.2.4,0,.2-.2.2-.4.1-.6-.3-1.3-.6-1.9-.9-.2-.1-.2-.3-.1-.5.4-.9.8-1.7,1.3-2.6,0-.1.2-.2.3-.2Z"/>
        <path class="cls-25" d="M40.2,3.3c0,.3-.2.3-.5.2-.3,0-.6-.2-.8-.3-.3-.1-.5-.2-.7.2-.2.5.1.5.4.6.3.2,1,0,.8.6-.2.5-.6,0-1,0-.3,0-.5-.2-.7.3-.1.4-.1.6.3.7.3,0,.6.2.9.3.1,0,.3,0,.2.3,0,.2-.2.3-.4.2-.6-.2-1.3-.5-1.9-.7-.3-.1-.3-.3-.2-.6.3-.9.6-1.7.9-2.6,0-.3.2-.3.5-.2.6.2,1.3.4,1.9.7.1,0,.2.1.2.3Z"/>
        <path class="cls-55" d="M36.4,44.4c-.1-.3-.6-.3-.7-.7.7,0,1.4.7,1.6,1.4,0,.4.2.7.6.7.4,0,.4.5.8.7,0-.4.3-.7.7-.4.3-.3-.2-.6.1-.8.2-.1.5,0,.7.1,0,0,0,.1,0,.2-.3.5-.4,1.2-1.1,1.5-.6.3-.9.3-1.1-.4,0-.1,0-.3-.2-.3-.3.1-.8,0-.8.4,0,.8-.8,1.1-1.2,1.7-.8,0-1.4-.3-1.9-.9,0-.2-.1-.5.2-.6.3,0,.3.2.4.3.1.2.3.5.5.4.2-.1,0-.3-.1-.5,0-.5,0-.9.3-1.3.3-.3.6-.3,1-.1.2.1.4.1.6,0,.2-.2,0-.4-.1-.5-.2-.3-.3-.5-.5-.8Z"/>
        <path class="cls-20" d="M11.3,47.1c-.1.2-.2.3-.3.4-.1.1-.2,0-.4,0-.2-.2-.4-.3-.6-.5-.2-.2-.4-.4-.7,0-.4.4-.1.5.1.8.2.2.8.4.5.8-.4.4-.6-.1-.8-.3-.5-.5-.7-.2-1,.1-.2.2-.3.7-.8.3-.3-.2-.4-.4,0-.7.6-.6,1.1-1.3,1.7-1.9.3-.3.5-.4.8,0,.4.4.8.7,1.2,1.1,0,0,.2.1.3.2Z"/>
        <path class="cls-59" d="M10.1,10.7c-.3,0-.3-.1-.4-.3-.4-.5-.8-.9-1.1-1.4-.3-.4-.6-.6-1-.2-.2.2-.4.5-.7.1-.2-.3.1-.4.3-.6.7-.5,1.3-1,2-1.6.1-.1.3-.3.5,0,.2.2.1.4,0,.5-.1,0-.2.2-.3.2-.3.2-.4.4,0,.7.4.5.8,1.1,1.3,1.6.1.1.3.3.1.5-.1.1-.3.3-.4.3Z"/>
        <path class="cls-30" d="M22.7,4.9c-.3,0-.4-.2-.4-.4-.1-.6-.2-1.2-.3-1.8,0-.6-.3-.7-.8-.6-.2,0-.6.3-.6-.2,0-.4.3-.3.5-.4.8-.1,1.6-.3,2.4-.4.2,0,.5-.2.6.2,0,.4-.2.3-.4.4-.7,0-.8.3-.6.9.2.5.2,1.1.3,1.7,0,.5,0,.6-.5.6Z"/>
        <path class="cls-9" d="M36.8,51.7c0,.3-.3.2-.5.3-.5,0-.7.3-.5.8.2.6.3,1.2.5,1.8,0,.3,0,.5-.4.6-.4,0-.5,0-.6-.4-.1-.6-.4-1.1-.5-1.7,0-.5-.3-.8-.8-.5-.1,0-.2,0-.3,0-.2,0-.3,0-.3-.2,0-.2,0-.3.2-.3.9-.2,1.9-.5,2.8-.8.2,0,.3,0,.4.4Z"/>
        <path class="cls-18" d="M19.2,45.5c1.9-3.4,3.6-6.9,5.3-10.3.1-.3.3-.5.5-.8.1-.2.2-.5.4-.7h0c0,0,0-.2.1-.3h0c0,0,.1,0,.1-.1h0c0,0,.1,0,.1-.1h0c0,0,.1,0,.1-.1h0c0,0,.1,0,.1-.1h0c0,0,.1,0,.1-.1h0c0,0,.1,0,.2-.1h0c0,0,.2,0,.3,0,0,.1,0,.3,0,.4-1.3,1.6-2.1,3.6-3.1,5.4-1,1.9-1.8,3.9-3,5.7-.2.3-.3.6-.4.9-.2.3-.3.8-.8.8,0-.1,0-.2,0-.3Z"/>
        <path class="cls-43" d="M16.7,6.6c0,.3-.3.3-.5.4-.2,0-.3,0-.4-.2-.4-.9-.8-1.8-1.2-2.6-.1-.3,0-.4.3-.5.2,0,.4-.2.6,0,.4.9.8,1.8,1.2,2.7,0,0,0,0,0,.1Z"/>
        <path class="cls-24" d="M37.9,50.8c.3,0,.4,0,.4.3.3.9.6,1.7,1,2.6.1.3,0,.4-.3.5-.2,0-.5.2-.6-.1-.3-.9-.7-1.8-1-2.7-.2-.5.3-.4.5-.6Z"/>
        <path class="cls-39" d="M7.9,33.2s0,.2-.1.2c-.4.3-.4.7-.4,1.1,0,.3-.1.5-.4.3-.3-.3-.6-.4-1-.3-.1,0-.3,0-.4,0,0-.2,0-.3.1-.4.3-.3.4-.6.3-1,0-.3,0-.6.4-.3.4.3.8.4,1.3.3.1,0,.3,0,.3.3Z"/>
        <path class="cls-19" d="M26.7,32.6c0,0-.2,0-.3,0,.9-.8,2-.6,3-.5,2.2,1.5,3.5,3.8,5.1,5.7,0,0-.1,0-.2,0-.2,0-.3-.2-.4-.3-1.2-1.2-2.2-2.5-3.2-3.8-1-1.2-2.2-1.7-3.6-1.2-.2,0-.3.1-.4,0Z"/>
        <path class="cls-58" d="M25.6,42.4c-.3.7-.8,1.2-1.3,1.6-.3.3-.6.5-.6.8,0,.1,0,.3-.1.3-.7,0-.7.9-1.3,1.1-.3.1-.3.4-.2.7.2.5,0,.7-.4.9,0,0,0-.1-.1-.2-.2-.9,0-1.7.8-2.3.9-.8,1.8-1.8,2.7-2.6.2-.2.3-.4.7-.4h0Z"/>
        <path class="cls-3" d="M18.4,10.2c-.1.3-.1.7,0,1.1.1.3-.1.3-.4.2-.3-.1-.6-.1-.9,0-.3.2-.5,0-.4-.3,0,0,0-.1,0-.2.3-.4-.5-.8,0-1.1.3-.2.7.3,1.1,0,.2-.2.4,0,.4.3Z"/>
        <path class="cls-22" d="M43.1,14.2c-.2,0-.4.2-.5.4-.1.1-.2.3-.4.3-.2,0-.2-.3-.2-.5,0-.4-.1-.6-.4-.9,0-.3.1-.4.4-.5.1,0,.2,0,.3,0,.2,0,.4-.5.7-.3.3.2.3.7.5,1,0,.2-.2.3-.3.5Z"/>
        <path class="cls-5" d="M19.2,45.5c0,0,0,.2,0,.3-.3,1,.4,1.5,1,2.1,0,0,0,.2-.1.3,0,0,0,0-.2.1,0,0,0,0,0,0-.6.5-.6.5-.8-.3,0-.1,0-.2-.2-.2-.4,0-.4-.2-.3-.5,0,0,0-.1,0-.1-.7-.9.3-1.2.6-1.7Z"/>
        <path class="cls-1" d="M41.1,12c-.2-.5-.5-1-.5-1.3,0-.3.8-.2,1-.6.2.4.6.8.6,1.1,0,.4-.8.2-1.1.8Z"/>
        <path class="cls-26" d="M7,30.4c.5,0,.9.4,1.4.3,0,.4-.4.7-.3,1.1,0,.2,0,.3-.3.2-.4-.2-1.4,0-.8-1.1,0-.1,0-.3,0-.5Z"/>
        <path class="cls-50" d="M48.2,27.6c-.2-.5-.9-.6-.9-.9,0-.3.5-.7.7-1,.3.3.6.6.9.8-.3.3-.5.6-.8,1.1Z"/>
        <path class="cls-31" d="M34.1,47.6c.6.3,1.3.6,1.9.9-.3.4-.8.7-.7,1.3,0,.4-.2.4-.5.2-.2-.2-.3-.3-.5-.5,0,0,0-.1,0-.2.1,0,.2,0,.3,0,.3,0,.4-.2.4-.4,0-.1,0-.3-.1-.3-.2,0-.4-.2-.6,0-.1.2-.2.3-.5.3,0,0,0,0,0,0,.4-.3.2-.8.3-1.2Z"/>
        <path class="cls-57" d="M43.1,14.2c.5-.5,0-.9-.2-1.3,0,0-.2-.1-.2-.1-.3.4-.9.2-1.2.7-.2,0-.3-.2-.2-.4,0-.2.2-.2.3-.2.4,0,.7-.1,1-.5,0-.1.2-.2.4-.2.2,0,.2.3.2.4,0,.3,0,.5.2.8.1.2.5.3.4.6-.2.3-.5.1-.8.1Z"/>
        <path class="cls-48" d="M20,48.2c0,0,.1-.1.2-.2.2-.2.2-.7.7-.5.2.3,0,.5-.2.8h0c-.1.2,0,.6-.4.6-.4,0-.4-.3-.4-.6,0,0,0,0,0,0,0,0,0,0,.1-.1Z"/>
        <path class="cls-15" d="M34.3,49.4c0,0,0,.1,0,.2-.1,0-.3,0-.4,0-.2,0-.5,0-.5-.3,0-.3.1-.4.4-.5,0,0,0,0,0,0,.1.2.3.3.5.5Z"/>
        <path class="cls-46" d="M20.7,48.3c0-.3.1-.5.2-.8,0,0,0,0,0,0,.2,0,.4.1.6.3,0,0,0,0,0,.1-.3.1-.6.3-.8.4Z"/>
        <path class="cls-23" d="M45.5,16.5c-.2.2-.4.3-.7.3h0c.1-.2.2-.3.4-.4,0,0,.2,0,.2.1Z"/>
        <path class="cls-13" d="M7.7,22.5c.2,0,.3,0,.5.2-.2,0-.4,0-.6,0,0,0,0,0,.1-.1Z"/>
        <path class="cls-19" d="M25.4,33.7c0,.3-.1.5-.4.7,0-.3.1-.5.4-.7Z"/>
        <path class="cls-46" d="M20.3,48.9c.3-.1.2-.4.4-.6,0,.3.2.7-.4.6Z"/>
        <path class="cls-44" d="M20.9,9c.2.1,0,.3,0,.5-.2-.2-.2-.3-.3-.5,0,0,.1,0,.2,0Z"/>
        <path class="cls-47" d="M23.2,54.5c0,.1,0,.2-.1.2-.1,0-.1-.1-.1-.2,0,0,.2,0,.2,0Z"/>
        <path class="cls-19" d="M25.6,33.4c0,.1,0,.2-.1.3,0-.1,0-.2.1-.3Z"/>
        <path class="cls-51" d="M4.5,39.4c-.1,0-.2-.1-.1-.3.1,0,.2.1.1.3Z"/>
        <path class="cls-19" d="M26.4,32.6c0,0-.1,0-.2.1,0,0,.1,0,.2-.1Z"/>
        <path class="cls-51" d="M4.4,39.1c0,0-.1,0,0-.2,0,0,.1,0,0,.2Z"/>
        <path class="cls-23" d="M45.4,16.3s0,0,.1-.1c0,0,0,0-.1.1Z"/>
        <path class="cls-23" d="M45.2,16.4s0,0,.1-.1c0,0,0,0-.1.1Z"/>
        <path class="cls-19" d="M25.7,33.3c0,0,0,.1-.1.2,0,0,0-.1.1-.2Z"/>
        <path class="cls-19" d="M25.8,33.2s0,0-.1.1c0,0,0,0,.1-.1Z"/>
        <path class="cls-23" d="M45.6,16.4c0,0-.1,0-.2,0,0,0,0-.1.2,0Z"/>
        <path class="cls-19" d="M26,33s0,0-.1.1c0,0,0,0,.1-.1Z"/>
        <path class="cls-19" d="M26.1,32.9s0,0-.1.1c0,0,0,0,.1-.1Z"/>
        <path class="cls-19" d="M26.2,32.7s0,0-.1.1c0,0,0,0,.1-.1Z"/>
        <path class="cls-23" d="M44.8,16.8h0s0,0,0,0c0,0,0,0,0,0Z"/>
        <path class="cls-7" d="M31.6,31.7c-.8-.9-.6-2.8.3-3.8.6-.7,1.5-1,2.4-1.3,2.7-1.1,5.5-2.3,8.2-3.4,1.3-.5,2.6-1,3.8-1.8.4-.3,1.3,0,1.5.5,0,0,0,.2.2.2.5,0,.8.2.4.7,0,0,0,0,0,0,.8.8-.1.7-.5.9-.1,0-.3.1-.3.2,0,.8-.7.5-1.1.5-.3,0-.5,0-.8.2-1.6,1.2-3.3,2.4-4.9,3.7-1.4,1.1-2,2.6-1.6,4.4,0,0,0,.1,0,.2,0,.1,0,.3,0,.4-.3-.1-.9-1-.7-1.5.2-.8.2-1.7.6-2.4.5-.8,1.2-1.4,1.9-2,1.2-.9,2.4-1.8,3.6-2.7.4-.3.8-.6,1.3-.7.6,0,1.2-.3,1.7-.7-.2,0-.4,0-.4-.4,0-.8-.6-1.2-1.3-.7-1.1.7-2.3,1.1-3.5,1.6-2.3.9-4.6,1.9-6.9,2.8-1.1.4-2.2.7-3.1,1.5-.8.7-1.1,1.7-.8,2.8,0,.3.3.5.1.8,0,0-.1,0-.2,0Z"/>
        <path class="cls-60" d="M39.3,33.3c0-.2,0-.3,0-.5,1.1,2.1,2.2,4.2,3.4,6.3.2.5.7.7,1.2.8.3,0,.7,0,.4.6-.2.3.2.3.3.5.2.3.6.4.1.9-.3.4-.5.5-1,.6-.8.2-1.3.4-1.8-.3-1.7-2.3-3.9-4.1-5.9-6.1-1.3-1.3-2.6-2.5-3.9-3.8-.2-.2-.5-.4-.5-.8,0,0,.1,0,.2,0,0,0,0,0,0,0,0,0,0,0,.1,0,0,0,0,0,0,0,0,0,0,0,0,0,0,0,0,0,0,0,0,0,0,0,.1.1,0,0,0,0,0,0,0,0,0,0,.1.1,0,0,0,0,.1.1.3.3.6.6.9.9.8.7,1.6,1.6,2.5,2.3,1.4,1.1,2.4,2.6,3.8,3.8.8.7,1.7,1.5,2.3,2.5.5.7,1.4.7,1.9,0,.2-.3-.2-1.3-.5-1.4-.9-.2-1.2-1-1.6-1.6-.7-1.5-1.4-2.9-2.3-4.3,0-.1-.1-.2-.2-.4,0-.2,0-.3,0-.5,0,0,0-.1,0-.2Z"/>
        <path class="cls-11" d="M48.4,31.8c0,2.3-1.8,4.1-4.1,4.1-2.3,0-4.1-1.8-4.2-4.2,0-2.5,2.1-4.2,4.3-4.2,1.8,0,4.2,1.7,4,4.3Z"/>
        <path class="cls-12" d="M40.4,45.5c-.2,0-.4,0-.7,0,0,.3.4.7,0,1-.3.3-.4-.2-.7-.2,0,.2.1.5-.2.7-.3.1-.4-.2-.5-.4-.2-.3-.3-.6-.8-.4-.3.1-.3-.3-.3-.4,0-1-.8-1.5-1.6-1.9,0,0,0,0,0,0,0,0-.1,0-.2-.1-.6-.5-1.1-.9-1.7-1.4.3-.3.6,0,.8.1.7.5,1.4,1.1,2.1,1.6.4.2.6.6.8,1,.3.6.7.7,1.3.5.1,0,.2,0,.2-.2,0-.4.4-.4.6-.5.2,0,.2,0,.3.2h0c0,0,0,.1.1.1h0s0,0,0,.2c0,0,0,.1,0,.2Z"/>
        <path class="cls-12" d="M34.4,37.8c0,0,.1,0,.2,0,1.3,1.4,2.4,2.9,3.6,4.4.5.7,1.2,1.2,1.8,1.8.2.2.4.3.4.6,0,0,0,0-.1.1h0c-.2.1-.4,0-.5,0-1.7-1.8-3.3-3.8-4.8-5.8-.3-.3-.6-.6-.6-1.1Z"/>
        <path class="cls-17" d="M39.8,44.7c.2-.2.3,0,.4,0,0,0,0,.2-.1.2,0,0-.2,0-.3-.1,0,0,0,0,0,0,0,0,0,0,0,0Z"/>
        <path class="cls-17" d="M40.4,45.3c0,0,0-.1,0-.2,0,0,0,.1,0,.2Z"/>
        <path class="cls-17" d="M40.3,45.1s0,0-.1-.1c0,0,0,0,.1.1Z"/>
        <path class="cls-17" d="M40.3,44.7s0,0,.1-.1c0,0,0,0-.1.1Z"/>
        <path class="cls-27" d="M21,38.7c-1.2,2.3-2.7,4.4-3.5,6.8-.1.4-.2.4-.6,0,0,.1-.1.2-.2.3-.1.2-.1.5-.4.4-.3,0-.2-.3-.1-.5,0-.3,0-.3-.2-.1,0,0-.1,0-.1.1h0c-.2,0-.4.3-.6,0,0,0,0-.1,0-.2,0,0,0-.1,0-.2,0,0,0,0,0-.1,0,0,0,0,0,0,0,0,0,0-.1.1,0,0-.1,0-.2,0-.2,0-.5-.1-.3-.5h0c0,0,0-.2.2-.2h0c0,0,0-.1.1-.1,0-.1.4-.3,0-.4-.6-.2-.3-.4,0-.6.7-.3,1-.9,1.2-1.6.4-1.8.8-3.5,1.3-5.3.6-2.4-.8-4.2-2.7-4.9-1.9-.8-3.8-1.5-5.6-2.3-.5-.2-1,0-1.4.2-.2,0-.3.2-.5,0-.2-.2,0-.4,0-.6-.4,0-.7,0-1,0-.3,0-.6,0-.4-.5.3-.3.6-.3.9-.2-.3-.1-.6,0-.9-.2-.3-.3-.2-.5.2-.5.3,0,.6,0,.9,0-.1-.1-.2-.2-.3-.2,0-.2,0-.3.2-.5.1,0,.4,0,.3,0-.4-.8.2-.4.4-.4,2.5.8,5.2.7,7.7,1,2.1.2,4.2.4,6.4.6,2.5.3,3.8,2.8,2.6,4.9-1,1.8-2,3.6-3,5.3-.1,0,0,.2-.1.3h0c0,0,0,.2-.2.3Z"/>
        <path class="cls-38" d="M15.4,45.4c0,.4.4-.2.6.1,0,.3-.3.5-.7.5-.1-.2-.3-.5,0-.7Z"/>
        <path class="cls-38" d="M14.8,44.7c0,.3.2.3.4.4.1.2,0,.2-.1.3,0,0,0,0-.1,0-.1,0-.3,0-.4,0,0-.3,0-.5.3-.7Z"/>
        <path class="cls-8" d="M6.9,26.7c0,.2-.1.3-.2.5-.2,0-.5-.1-.4-.4,0-.3.3-.2.5,0Z"/>
        <path class="cls-42" d="M5.9,28c.4,0,.7.1,1.2.2-.5.1-.8.2-1.2.3,0-.1,0-.3,0-.4Z"/>
        <path class="cls-28" d="M15.1,45.4c0,0,0-.2.1-.3,0,0,0,0,0,0,0,0,.2-.3.3,0,0,0,0,0,0,.1,0,0,0,.1-.1.2,0,0,0,0,0,0-.2.2-.2.4,0,.7-.3-.2-.1-.5-.2-.7Z"/>
        <path class="cls-28" d="M14.6,45.4c.1,0,.3,0,.4,0-.2.2-.3.2-.4,0Z"/>
        <path class="cls-61" d="M21.2,38.4c0-.1,0-.2.1-.3,0,.1,0,.2-.1.3Z"/>
        <path class="cls-61" d="M21,38.7c0-.1,0-.2.2-.3,0,.1,0,.2-.2.3Z"/>
        <path class="cls-38" d="M15,44.5c0,.1,0,.2-.2.3,0-.1,0-.2.2-.3Z"/>
        <path class="cls-38" d="M15.1,44.3s0,0-.1.1c0,0,0,0,.1-.1Z"/>
        <path class="cls-38" d="M16,45.6s0,0,.1-.1c0,0,0,0-.1.1Z"/>
        <path class="cls-40" d="M39.8,44.7s0,0,0,.1c-.1.2-.7.2-.5.7,0,0,0,.1-.1.1-.4.2-1.4,0-1.6-.4-.5-1.3-1.7-1.7-2.6-2.5-.3-.3-.6-.7-1.2-.6-.6-.4-1.1-.8-1.7-1.2-1.4-1.1-2.9-1.4-4.6-.6-.3,0-.5.2-.7.4h0c-.5.3-1.1.7-1.4,1.2h0c-.2.2-.4.4-.6.6-1.1,1-2.1,2.1-3.2,3.2-.2.2-.3.5-.3.8,0,.4-.2.6-.6.8,0,0,0,0,0,0-.3,0-.4.5-.7.5-.3-.3-.7-.5-1-.8-.3-.2-.3-.9,0-1.4.9-1.2,1.6-2.6,2.3-3.9.9-1.7,1.6-3.5,2.6-5.1.8-1.4,1.4-3,2.6-4.2.4,0,.7-.4,1.2-.4,1.4,0,2.4.5,3.1,1.7.4.6,1.1,1.1,1.5,1.8.5.8,1.2,1.4,1.8,2.1.7,1.2,1.7,2.2,2.5,3.3.8,1.1,1.8,2.1,2.7,3.1.1.1.2.3.3.5Z"/>
        <path class="cls-40" d="M33.7,45.1c0,2.3-1.9,4.1-4.2,4.1-2.1,0-4-1.9-4-4,0-2.4,1.8-4.2,4.1-4.2,2.3,0,4.1,1.9,4.1,4.1Z"/>
        <path class="cls-33" d="M25.6,42.1c.2-.7.7-1,1.4-1.2-.5.4-.9.8-1.4,1.2Z"/>
        <path class="cls-33" d="M25,42.7c.2-.2.3-.4.6-.5,0,0,0,.2,0,.2-.2.1-.3.3-.5.4,0,0,0,0,0,0,0,0,0,0,0,0Z"/>
        <path class="cls-33" d="M26.9,40.9c.1-.3.4-.5.7-.4-.2.2-.4.4-.7.4Z"/>
        <path class="cls-55" d="M35.6,43.6c0,0,.1,0,.2.1,0,0-.1,0-.2-.1Z"/>
        <path class="cls-6" d="M27.1.8c-1.5,0-2.4.7-2.4,1.9,0,1.2.7,1.8,2,1.8,1.5,0,2.3-.7,2.3-1.9,0-1.2-.7-1.8-2-1.8ZM26.8,3.9c-.8,0-1.1-.5-1.1-1.3,0-.8.4-1.2,1.3-1.2.8,0,1.1.4,1.1,1.3,0,.8-.5,1.2-1.3,1.2Z"/>
        <path class="cls-16" d="M12.2,48.3c-.9,0-1.8.9-1.8,1.9,0,1,1.4,2.1,2.6,2.1,1,0,1.8-.9,1.8-1.9,0-1-1.4-2.1-2.6-2.1ZM12.6,51.5c-.7,0-1.3-.6-1.3-1.2,0-.7.7-1.4,1.3-1.4.7,0,1.3.6,1.3,1.2,0,.7-.7,1.4-1.3,1.4Z"/>
        <path class="cls-16" d="M43.7,49.7c-.5-.8-1.2-1-2.1-.7-1.2.4-1.9,1.2-1.9,2.1,0,1.4,1.2,2.2,2.4,1.7.5-.2.9-.4,1.2-.7.7-.6.8-1.5.3-2.3ZM41.8,52.2c-.5,0-1.2-.7-1.2-1.4,0-.6.6-1.2,1.3-1.2.6,0,1.2.6,1.3,1.4,0,.6-.6,1.2-1.3,1.2Z"/>
        <path class="cls-59" d="M28,52.8c-.4-.1-.7-.1-1.1-.1q-1.4,0-1.5,1.4c0,.1,0,.2,0,.4,0,1.8,0,1.9,1.9,1.7.2,0,.5,0,.7-.1.8-.2,1.2-.9,1.2-1.7,0-.8-.5-1.3-1.2-1.6ZM28,55.2c-.2.3-1.2.6-1.6.4-.2,0-.2-.2-.2-.3,0-.3,0-.6,0-.9,0,0,0,0,0,0,0,0,0-.2,0-.3,0-.3-.2-.8.1-.9.5-.1,1,0,1.4.3.4.4.5,1.1.1,1.6Z"/>
        <path class="cls-45" d="M47,6.8c-.4-.5-1-.8-1.5-1.1-.2-.2-.4,0-.5.1-.5.8-1,1.6-1.6,2.3-.2.3-.1.4.1.6.6.5.7-.2.9-.4.1-.1.2-.5.5-.4.3.1.5.3.4.6,0,.2,0,.4,0,.6-.2.6,0,.9.7,1.2.2-.5.2-1,.2-1.6,0-.2,0-.4.2-.3.4,0,.8,0,.9-.5.2-.5,0-.8-.3-1.1ZM46,7.8c-.4,0-.8-.2-.8-.6,0-.2.2-.7.6-.6.3,0,.7.3.7.7,0,.4-.2.5-.5.5Z"/>
        <path class="cls-34" d="M14.7,6.9c-.3-.2-.7-.4-1.2-.5.3-.5.5-.9,0-1.3-.4-.4-.9-.3-1.3-.1-.5.2-.9.5-1.4.7-.4.2-.4.4-.2.7.4.7.9,1.4,1.3,2.2.2.5.5.4.8.1.5-.4,0-.6-.1-.9,0-.2-.4-.4-.2-.6.2-.2.6-.3.9,0,.3.2.5.3.8.5.4.2.7,0,.9-.3.2-.3-.2-.3-.4-.4ZM12.1,6.8c-.3,0-.5-.4-.5-.7,0-.4.5-.5.8-.5.3,0,.5.1.5.4,0,.3-.5.9-.8.8Z"/>
        <path class="cls-25" d="M33.9,55.1c-.5-.8-1.1-1.6-1.6-2.5-.2-.4-.6-.2-.9-.2-.3,0-.5.1-.6.5-.2.9-.5,1.8-.8,2.7,0,.2-.3.5,0,.6.3,0,.7,0,.8-.4,0-.2,0-.4.3-.5.5,0,.9-.2,1.4-.2s.3.3.5.5c.1.2.3.2.6.1.3,0,.6,0,.2-.6ZM31.2,54.6c.2-.5.2-1,.5-1.5.3.4.5.8.8,1.3-.4.2-.8.2-1.2.2Z"/>
        <path class="cls-45" d="M20,2.9c-.2-.5-.6-.6-1.3-.6-.5,0-1.1.3-1.7.5-.2,0-.3.2-.2.4.3.9.6,1.8.9,2.7.1.4.4.2.6.2.2,0,.4-.1.3-.4-.4-.7-.1-1.1.6-1.2.2,0,.3-.2.5-.3.4-.3.6-.8.4-1.3ZM18.3,4.1c-.4,0-.4-.6-.4-.9,0-.4.5-.3.7-.4.4,0,.5.2.5.5,0,.5-.5.8-.9.7Z"/>
        <path class="cls-14" d="M35.9,47.3c-.2,0-.6,0-.6-.2,0-.3.3-.7.4-1,0-.1.2,0,.3,0,.1.1.2.3.4.4.2,0,.4.2.3.4-.2.2,0,.9-.6.6h0c0,0-.1,0-.1-.1Z"/>
        <path class="cls-36" d="M36,47.5c.4,0,.4-.3.5-.5.3-.4-.2-.3-.3-.5,0-.1-.2-.2-.2-.3,0,0,0,0,0,0,.9.2.9.6.5,1.3-.2.5-.3.4-.5,0Z"/>
        <path class="cls-36" d="M35.9,47.3s0,0,.1.1c0,0,0,0-.1-.1Z"/>
        <path class="cls-21" d="M25,42.7c0,0,0,.1,0,.2-.8.8-1.6,1.8-2.5,2.5-.8.7-1,1.4-.9,2.4-.3,0-.5-.1-.7-.2.1-.2.3-.4.4-.6.2-1.1,1-1.7,1.8-2.4.4-.3.7-.7,1-1.1.2-.4.6-.6.9-.7Z"/>
        <path class="cls-53" d="M20,48.2s0,0-.1.1c0,0,0,0,.1-.1Z"/>
        <path class="cls-32" d="M34.3,49.4c-.3,0-.6,0-.5-.5.2,0,.3-.2.4-.4,0-.2.2-.4.4-.2.2.2.7,0,.8.5,0,.6-.4,1-1,.7Z"/>
        <path class="cls-54" d="M39.4,33.9c.8,1.3,1.6,2.6,2.2,4,.3.6.7,1.2,1,1.7,0,.1.2.3.3.3.7,0,.9.6,1.2,1.1.2.3.2.6,0,.7-.4.2-.7.7-1.3.6-.4,0-.6-.2-.7-.5-.9-1.4-2.2-2.4-3.3-3.6-.7-.6-1.2-1.4-1.9-2-.8-.7-1.4-1.5-2.3-2.1-.4-.3-.7-.8-1.2-1-.3-.4-.7-.7-1-1.1h0s0,0-.1-.1h0s0,0-.1-.1h0s0,0-.1-.1h0s0,0-.1-.1c0,0,0,0,0,0-.4-1-.6-2,0-3,.3-.5.8-.8,1.2-1.1.7-.6,1.7-.7,2.5-1.1,1.5-.7,3-1.2,4.5-1.9.7-.3,1.5-.6,2.3-.9,1.2-.4,2.5-.7,3.5-1.6.6-.5,1.6-.2,1.9.4.1.3-.2.4-.3.6.2.3.5,0,.8.2-.7.3-1.2.9-2,1-.9,0-1.4.8-2.1,1.3-.9.6-1.7,1.3-2.6,1.9-1,.7-1.9,1.4-2.3,2.5-.4,1.1-.6,2.3.1,3.4,0,0,0,0,0,.1.1.1,0,.3.1.4Z"/>
        <path class="cls-7" d="M32.3,32.2c.4.3.8.6,1,1.1-.4-.3-.8-.6-1-1.1Z"/>
        <path class="cls-7" d="M39.4,33.9c-.2-.1-.1-.3-.1-.4.2,0,.1.3.1.4Z"/>
        <path class="cls-7" d="M32.2,32.1s0,0,.1.1c0,0,0,0-.1-.1Z"/>
        <path class="cls-7" d="M32,31.9s0,0,.1.1c0,0,0,0-.1-.1Z"/>
        <path class="cls-7" d="M31.9,31.8s0,0,.1.1c0,0,0,0-.1-.1Z"/>
        <path class="cls-7" d="M31.7,31.7s0,0,.1.1c0,0,0,0-.1-.1Z"/>
        <path class="cls-54" d="M44.2,27.8c1.1-.1,2,.4,2.8,1,1.4,1.1,1.5,3.9.4,5.3-1.1,1.3-2.6,2-4.2,1.4-2-.7-3.6-2.7-2.6-5.1.3-.7.8-1.5,1.5-1.9.6-.4,1.3-.7,2.1-.6Z"/>
        <path class="cls-38" d="M15.5,45.1c0-.1-.2,0-.3,0,0-.3.2-.4.4-.5.1.3,0,.4-.2.5Z"/>
        <path class="cls-38" d="M15.4,45.4c0,0,0-.1.1-.2,0,0,0,.1-.1.2Z"/>
      </g>
      <g>
        <path class="cls-4" d="M64.2,23.5h-1.4l-.6-1.4h-2.5l-.5,1.4h-1.4l2.5-6.3h1.4l2.5,6.3ZM61.8,21l-.9-2.4-.9,2.4h1.7Z"/>
        <path class="cls-4" d="M66.7,21.5h1.2c0,.3.2.6.5.8s.5.3.9.3.7,0,.9-.3.3-.4.3-.6,0-.3-.1-.4-.2-.2-.5-.3c-.1,0-.5-.1-1-.3s-1.2-.4-1.4-.6c-.4-.3-.6-.8-.6-1.3s0-.6.3-.9.4-.5.8-.6.8-.2,1.2-.2c.8,0,1.4.2,1.8.5s.6.8.6,1.4h-1.3c0-.3-.2-.5-.4-.6s-.5-.2-.8-.2-.7,0-.9.2c-.1,0-.2.2-.2.4s0,.3.2.4c.2.1.6.3,1.2.4s1.1.3,1.4.5.5.4.7.6.3.6.3,1-.1.7-.3,1-.5.6-.9.7-.8.2-1.4.2c-.8,0-1.4-.2-1.8-.6s-.7-.9-.8-1.6Z"/>
        <path class="cls-4" d="M73.8,20.3l-1.1-.2c.1-.4.3-.8.6-1s.8-.3,1.3-.3.9,0,1.2.2c.3.1.5.3.6.5s.2.6.2,1.1v1.4c0,.4,0,.7,0,.9s.1.4.2.6h-1.2c0,0,0-.2-.1-.4,0,0,0-.1,0-.1-.2.2-.4.4-.7.5-.2.1-.5.2-.8.2-.5,0-.8-.1-1.1-.4s-.4-.6-.4-1,0-.5.2-.7.3-.4.5-.5.5-.2,1-.3c.6-.1,1-.2,1.2-.3h0c0-.4,0-.5-.2-.6-.1,0-.3-.1-.7-.1s-.4,0-.5.1-.2.2-.3.4ZM75.4,21.3c-.2,0-.4.1-.7.2s-.6.1-.7.2c-.2.1-.2.3-.2.4s0,.3.2.4.3.2.5.2.4,0,.6-.2c.1-.1.2-.2.3-.4,0-.1,0-.3,0-.6v-.2Z"/>
        <path class="cls-4" d="M77.3,18.9h.7v-.3c0-.4,0-.7.1-.9s.2-.3.5-.5.5-.2.8-.2.7,0,1,.2l-.2.8c-.2,0-.4,0-.6,0s-.3,0-.4.1-.1.2-.1.5v.3h.9v1h-.9v3.6h-1.2v-3.6h-.7v-1Z"/>
        <path class="cls-4" d="M83.4,22.1l1.2.2c-.2.4-.4.8-.7,1s-.8.3-1.3.3c-.8,0-1.4-.3-1.8-.8-.3-.4-.5-.9-.5-1.6s.2-1.4.6-1.8.9-.6,1.5-.6,1.2.2,1.6.7.6,1.1.6,2.1h-3c0,.4.1.6.3.8s.4.3.7.3.4,0,.5-.2.2-.3.3-.5ZM83.5,20.8c0-.4,0-.6-.3-.8s-.4-.3-.6-.3-.5,0-.7.3-.3.5-.3.8h1.8Z"/>
        <path class="cls-4" d="M88.2,23.5v-6.3h1.3v2.5h2.5v-2.5h1.3v6.3h-1.3v-2.8h-2.5v2.8h-1.3Z"/>
        <path class="cls-4" d="M94.3,21.2c0-.4,0-.8.3-1.2s.5-.7.8-.9.8-.3,1.2-.3c.7,0,1.3.2,1.7.7s.7,1,.7,1.7-.2,1.3-.7,1.7-1,.7-1.7.7-.8,0-1.2-.3-.7-.5-.9-.8-.3-.8-.3-1.3ZM95.5,21.2c0,.5.1.8.3,1s.5.4.8.4.6-.1.8-.4.3-.6.3-1.1-.1-.8-.3-1-.5-.4-.8-.4-.6.1-.8.4-.3.6-.3,1Z"/>
        <path class="cls-4" d="M99.9,18.9h1.1v.6c.4-.5.9-.7,1.4-.7s.5,0,.8.2.4.3.5.5c.2-.2.4-.4.7-.5s.5-.2.7-.2.6,0,.9.2.4.3.5.6c0,.2.1.5.1,1v2.9h-1.2v-2.6c0-.5,0-.7-.1-.9-.1-.2-.3-.3-.5-.3s-.3,0-.5.2-.3.3-.3.5,0,.5,0,.9v2.2h-1.2v-2.5c0-.4,0-.7,0-.9s-.1-.2-.2-.3-.2,0-.4,0-.4,0-.5.2-.3.2-.3.4,0,.5,0,.9v2.2h-1.2v-4.6Z"/>
        <path class="cls-4" d="M110.5,22.1l1.2.2c-.2.4-.4.8-.7,1s-.8.3-1.3.3c-.8,0-1.4-.3-1.8-.8-.3-.4-.5-.9-.5-1.6s.2-1.4.6-1.8.9-.6,1.5-.6,1.2.2,1.6.7.6,1.1.6,2.1h-3c0,.4.1.6.3.8s.4.3.7.3.4,0,.5-.2.2-.3.3-.5ZM110.6,20.8c0-.4,0-.6-.3-.8s-.4-.3-.6-.3-.5,0-.7.3-.3.5-.3.8h1.8Z"/>
        <path class="cls-4" d="M114.7,18.9h.7v-.3c0-.4,0-.7.1-.9s.2-.3.5-.5.5-.2.8-.2.7,0,1,.2l-.2.8c-.2,0-.4,0-.6,0s-.3,0-.4.1-.1.2-.1.5v.3h.9v1h-.9v3.6h-1.2v-3.6h-.7v-1Z"/>
        <path class="cls-4" d="M117.9,21.2c0-.4,0-.8.3-1.2s.5-.7.8-.9.8-.3,1.2-.3c.7,0,1.3.2,1.7.7s.7,1,.7,1.7-.2,1.3-.7,1.7-1,.7-1.7.7-.8,0-1.2-.3-.7-.5-.9-.8-.3-.8-.3-1.3ZM119.1,21.2c0,.5.1.8.3,1s.5.4.8.4.6-.1.8-.4.3-.6.3-1.1-.1-.8-.3-1-.5-.4-.8-.4-.6.1-.8.4-.3.6-.3,1Z"/>
        <path class="cls-4" d="M124.7,23.5h-1.2v-4.6h1.1v.7c.2-.3.4-.5.5-.6s.3-.1.5-.1c.3,0,.5,0,.8.2l-.4,1.1c-.2-.1-.4-.2-.6-.2s-.3,0-.4.1-.2.3-.3.5-.1.8-.1,1.5v1.4Z"/>
        <path class="cls-4" d="M129.2,20.4c0-.6,0-1.2.3-1.6.1-.3.3-.6.6-.9s.5-.4.8-.6c.4-.2.9-.3,1.4-.3.9,0,1.7.3,2.2.9s.8,1.4.8,2.4-.3,1.8-.8,2.4-1.3.9-2.2.9-1.7-.3-2.2-.9-.8-1.4-.8-2.4ZM130.6,20.3c0,.7.2,1.3.5,1.6s.8.6,1.3.6.9-.2,1.3-.6.5-.9.5-1.7-.2-1.3-.5-1.6-.7-.5-1.3-.5-1,.2-1.3.5-.5.9-.5,1.6Z"/>
        <path class="cls-4" d="M137.5,23.5h-1.2v-4.6h1.1v.7c.2-.3.4-.5.5-.6s.3-.1.5-.1c.3,0,.5,0,.8.2l-.4,1.1c-.2-.1-.4-.2-.6-.2s-.3,0-.4.1-.2.3-.3.5-.1.8-.1,1.5v1.4Z"/>
        <path class="cls-4" d="M139.8,18.9h1.1v.7c.1-.2.3-.4.6-.6s.5-.2.8-.2c.5,0,1,.2,1.4.6s.6,1,.6,1.7-.2,1.4-.6,1.8-.8.6-1.4.6-.5,0-.7-.2-.4-.3-.7-.5v2.3h-1.2v-6.3ZM141,21.1c0,.5.1.9.3,1.1s.5.4.7.4.5-.1.7-.3.3-.6.3-1.1,0-.8-.3-1.1-.4-.4-.7-.4-.5.1-.7.3-.3.6-.3,1Z"/>
        <path class="cls-4" d="M146.4,17.2v2.3c.4-.5.9-.7,1.4-.7s.5,0,.8.2.4.2.5.4.2.3.2.5,0,.5,0,.9v2.7h-1.2v-2.4c0-.5,0-.8,0-.9s-.1-.2-.2-.3-.3-.1-.4-.1-.4,0-.5.1-.3.2-.3.4-.1.5-.1.9v2.3h-1.2v-6.3h1.2Z"/>
        <path class="cls-4" d="M151.6,20.3l-1.1-.2c.1-.4.3-.8.6-1s.8-.3,1.3-.3.9,0,1.2.2.5.3.6.5.2.6.2,1.1v1.4c0,.4,0,.7,0,.9s.1.4.2.6h-1.2c0,0,0-.2-.1-.4,0,0,0-.1,0-.1-.2.2-.4.4-.7.5s-.5.2-.8.2c-.5,0-.8-.1-1.1-.4s-.4-.6-.4-1,0-.5.2-.7.3-.4.5-.5.5-.2,1-.3c.6-.1,1-.2,1.2-.3h0c0-.4,0-.5-.2-.6s-.3-.1-.7-.1-.4,0-.5.1-.2.2-.3.4ZM153.2,21.3c-.2,0-.4.1-.7.2s-.6.1-.7.2c-.2.1-.2.3-.2.4s0,.3.2.4.3.2.5.2.4,0,.6-.2c.1-.1.2-.2.3-.4,0-.1,0-.3,0-.6v-.2Z"/>
        <path class="cls-4" d="M159.8,23.5h-1.2v-2.3c0-.5,0-.8,0-1s-.1-.3-.3-.3-.3-.1-.4-.1-.4,0-.6.2-.3.3-.3.5,0,.5,0,1.1v2.1h-1.2v-4.6h1.1v.7c.4-.5.9-.8,1.5-.8s.5,0,.7.1.4.2.5.4.2.3.2.5,0,.5,0,.8v2.9Z"/>
        <path class="cls-4" d="M163.6,22.1l1.2.2c-.2.4-.4.8-.7,1s-.8.3-1.3.3c-.8,0-1.4-.3-1.8-.8-.3-.4-.5-.9-.5-1.6s.2-1.4.6-1.8.9-.6,1.5-.6,1.2.2,1.6.7.6,1.1.6,2.1h-3c0,.4.1.6.3.8s.4.3.7.3.4,0,.5-.2.2-.3.3-.5ZM163.7,20.8c0-.4,0-.6-.3-.8s-.4-.3-.6-.3-.5,0-.7.3-.3.5-.3.8h1.8Z"/>
        <path class="cls-4" d="M170.1,23.5h-1.1v-.7c-.2.3-.4.5-.7.6s-.5.2-.8.2c-.5,0-1-.2-1.4-.6s-.6-1-.6-1.8.2-1.4.5-1.8.8-.6,1.4-.6,1,.2,1.3.6v-2.3h1.2v6.3ZM166.9,21.1c0,.5,0,.8.2,1.1.2.3.5.5.8.5s.5-.1.7-.4.3-.6.3-1.1,0-.9-.3-1.1-.4-.3-.7-.3-.5.1-.7.3-.3.6-.3,1Z"/>
        <path class="cls-4" d="M59.3,31l-1.1-.2c.1-.4.3-.8.6-1s.8-.3,1.3-.3.9,0,1.2.2.5.3.6.5.2.6.2,1.1v1.4c0,.4,0,.7,0,.9s.1.4.2.6h-1.2c0,0,0-.2-.1-.4,0,0,0-.1,0-.1-.2.2-.4.4-.7.5s-.5.2-.8.2c-.5,0-.8-.1-1.1-.4s-.4-.6-.4-1,0-.5.2-.7.3-.4.5-.5.5-.2,1-.3c.6-.1,1-.2,1.2-.3h0c0-.4,0-.5-.2-.6s-.3-.1-.7-.1-.4,0-.5.1-.2.2-.3.4ZM61,31.9c-.2,0-.4.1-.7.2s-.6.1-.7.2c-.2.1-.2.3-.2.4s0,.3.2.4.3.2.5.2.4,0,.6-.2c.1-.1.2-.2.3-.4,0-.1,0-.3,0-.6v-.2Z"/>
        <path class="cls-4" d="M67.5,34.1h-1.2v-2.3c0-.5,0-.8,0-1s-.1-.3-.3-.3-.3-.1-.4-.1-.4,0-.6.2-.3.3-.3.5,0,.5,0,1.1v2.1h-1.2v-4.6h1.1v.7c.4-.5.9-.8,1.5-.8s.5,0,.7.1.4.2.5.4.2.3.2.5,0,.5,0,.8v2.9Z"/>
        <path class="cls-4" d="M73,34.1h-1.1v-.7c-.2.3-.4.5-.7.6s-.5.2-.8.2c-.5,0-1-.2-1.4-.6s-.6-1-.6-1.8.2-1.4.5-1.8.8-.6,1.4-.6,1,.2,1.3.6v-2.3h1.2v6.3ZM69.7,31.7c0,.5,0,.8.2,1.1.2.3.5.5.8.5s.5-.1.7-.4.3-.6.3-1.1,0-.9-.3-1.1-.4-.3-.7-.3-.5.1-.7.3-.3.6-.3,1Z"/>
        <path class="cls-4" d="M78.3,34.1l-2.3-6.3h1.4l1.6,4.7,1.6-4.7h1.4l-2.3,6.3h-1.4Z"/>
        <path class="cls-4" d="M85.3,34.1v-.7c-.2.2-.4.4-.7.6s-.6.2-.9.2-.6,0-.8-.2-.4-.3-.5-.6-.2-.6-.2-1v-2.9h1.2v2.1c0,.6,0,1,0,1.2s.1.3.2.3.3.1.4.1.4,0,.6-.2.3-.3.3-.4,0-.6,0-1.2v-1.9h1.2v4.6h-1.1Z"/>
        <path class="cls-4" d="M87.6,34.1v-6.3h1.2v6.3h-1.2Z"/>
        <path class="cls-4" d="M94.3,34.1h-1.2v-2.3c0-.5,0-.8,0-1s-.1-.3-.3-.3-.3-.1-.4-.1-.4,0-.6.2-.3.3-.3.5,0,.5,0,1.1v2.1h-1.2v-4.6h1.1v.7c.4-.5.9-.8,1.5-.8s.5,0,.7.1.4.2.5.4.2.3.2.5,0,.5,0,.8v2.9Z"/>
        <path class="cls-4" d="M98.2,32.7l1.2.2c-.2.4-.4.8-.7,1s-.8.3-1.3.3c-.8,0-1.4-.3-1.8-.8-.3-.4-.5-.9-.5-1.6s.2-1.4.6-1.8.9-.6,1.5-.6,1.2.2,1.6.7.6,1.1.6,2.1h-3c0,.4.1.6.3.8s.4.3.7.3.4,0,.5-.2.2-.3.3-.5ZM98.2,31.5c0-.4,0-.6-.3-.8s-.4-.3-.6-.3-.5,0-.7.3-.3.5-.3.8h1.8Z"/>
        <path class="cls-4" d="M101.6,34.1h-1.2v-4.6h1.1v.7c.2-.3.4-.5.5-.6s.3-.1.5-.1c.3,0,.5,0,.8.2l-.4,1.1c-.2-.1-.4-.2-.6-.2s-.3,0-.4.1-.2.3-.3.5-.1.8-.1,1.5v1.4Z"/>
        <path class="cls-4" d="M104.8,31l-1.1-.2c.1-.4.3-.8.6-1s.8-.3,1.3-.3.9,0,1.2.2.5.3.6.5.2.6.2,1.1v1.4c0,.4,0,.7,0,.9s.1.4.2.6h-1.2c0,0,0-.2-.1-.4,0,0,0-.1,0-.1-.2.2-.4.4-.7.5s-.5.2-.8.2c-.5,0-.8-.1-1.1-.4s-.4-.6-.4-1,0-.5.2-.7.3-.4.5-.5.5-.2,1-.3c.6-.1,1-.2,1.2-.3h0c0-.4,0-.5-.2-.6s-.3-.1-.7-.1-.4,0-.5.1-.2.2-.3.4ZM106.4,31.9c-.2,0-.4.1-.7.2s-.6.1-.7.2c-.2.1-.2.3-.2.4s0,.3.2.4.3.2.5.2.4,0,.6-.2c.1-.1.2-.2.3-.4,0-.1,0-.3,0-.6v-.2Z"/>
        <path class="cls-4" d="M108.8,34.1v-6.3h1.2v2.3c.4-.4.8-.6,1.3-.6s1,.2,1.4.6.5,1,.5,1.7-.2,1.4-.6,1.8-.8.6-1.4.6-.5,0-.8-.2-.5-.3-.7-.6v.7h-1.1ZM110,31.7c0,.5,0,.8.2,1.1.2.3.5.5.8.5s.5-.1.7-.3.3-.6.3-1.1,0-.9-.3-1.1-.4-.3-.7-.3-.5.1-.7.3-.3.6-.3,1Z"/>
        <path class="cls-4" d="M114.2,34.1v-6.3h1.2v6.3h-1.2Z"/>
        <path class="cls-4" d="M119.3,32.7l1.2.2c-.2.4-.4.8-.7,1s-.8.3-1.3.3c-.8,0-1.4-.3-1.8-.8-.3-.4-.5-.9-.5-1.6s.2-1.4.6-1.8.9-.6,1.5-.6,1.2.2,1.6.7.6,1.1.6,2.1h-3c0,.4.1.6.3.8s.4.3.7.3.4,0,.5-.2.2-.3.3-.5ZM119.4,31.5c0-.4,0-.6-.3-.8s-.4-.3-.6-.3-.5,0-.7.3-.3.5-.3.8h1.8Z"/>
        <path class="cls-4" d="M127,31.8v-1.1h2.8v2.5c-.3.3-.7.5-1.2.7s-1,.3-1.5.3-1.2-.1-1.7-.4-.9-.7-1.1-1.2-.4-1.1-.4-1.7.1-1.2.4-1.8.7-.9,1.2-1.2c.4-.2.9-.3,1.5-.3s1.4.2,1.8.5.7.8.9,1.4l-1.3.2c0-.3-.3-.6-.5-.7s-.6-.3-.9-.3c-.6,0-1,.2-1.3.5s-.5.9-.5,1.6.2,1.3.5,1.7.8.6,1.3.6.5,0,.8-.2.5-.2.7-.4v-.8h-1.5Z"/>
        <path class="cls-4" d="M131,28.9v-1.1h1.2v1.1h-1.2ZM131,34.1v-4.6h1.2v4.6h-1.2Z"/>
        <path class="cls-4" d="M134.6,34.1h-1.2v-4.6h1.1v.7c.2-.3.4-.5.5-.6s.3-.1.5-.1c.3,0,.5,0,.8.2l-.4,1.1c-.2-.1-.4-.2-.6-.2s-.3,0-.4.1-.2.3-.3.5-.1.8-.1,1.5v1.4Z"/>
        <path class="cls-4" d="M136.9,34.1v-6.3h1.2v6.3h-1.2Z"/>
        <path class="cls-4" d="M138.9,32.8l1.2-.2c0,.2.2.4.3.5s.4.2.7.2.6,0,.7-.2c.1,0,.2-.2.2-.3s0-.2,0-.2c0,0-.2-.1-.4-.2-1-.2-1.6-.4-1.9-.6-.4-.2-.5-.6-.5-1s.2-.7.5-1,.8-.4,1.5-.4,1.1.1,1.4.3.5.5.6.9l-1.1.2c0-.2-.1-.3-.3-.4s-.3-.1-.6-.1-.5,0-.7.1c0,0-.1.1-.1.2s0,.2.1.2c.1,0,.5.2,1.1.3s1.1.3,1.4.5c.3.2.4.5.4.9s-.2.8-.5,1.1-.9.5-1.6.5-1.1-.1-1.5-.4-.6-.6-.7-1Z"/>
      </g>
    </g>
  </g>
</svg>